<svg fill="none" height="24" viewBox="0 0 180 24" width="180" xmlns="http://www.w3.org/2000/svg"><g fill="#000"><path d="m10.7088 3.92343c-1.29111-.4649-2.68317-.66946-3.94772-.66946-1.49567 0-2.94087.43834-2.94087 1.96058 0 1.29111 1.05733 1.93667 3.48282 2.91696 3.04447 1.26454 5.10867 2.50249 5.10867 5.73029 0 3.6901-3.19857 5.4195-6.81156 5.4195-1.67632 0-3.79364-.2842-5.60014-.9298l.672123-3.0711c1.652417.6695 3.458907.9803 4.800497.9803 2.03762 0 3.17465-.7226 3.17465-2.1412s-1.11046-2.0642-3.61299-3.0445c-2.94353-1.19013-4.9838044-2.66189-4.9838044-5.50181 0-3.81755 3.3553044-5.339792 6.4794744-5.339792 1.77993 0 3.48285.231126 4.82445.669467z"/><path d="m21.6219 19.276c-4.232 0-6.9417-2.7097-6.9417-7.1489 0-4.43924 2.7097-7.09585 6.9417-7.09585s6.9417 2.65661 6.9417 7.09585c0 4.4392-2.7602 7.1489-6.9417 7.1489zm0-11.48453c-2.2183 0-3.2783 1.77993-3.2783 4.33563 0 2.5556 1.0839 4.386 3.2783 4.386s3.2783-1.7294 3.2783-4.386c0-2.65665-1.0574-4.33563-3.2783-4.33563z"/><path d="m35.1443 5.34235v1.83306h.0505c.696-1.39472 2.375-2.14123 4.1283-2.14123 3.0711 0 5.0317 1.96058 5.0317 4.95458v8.97934h-3.6635v-7.6138c0-2.22097-.5154-3.56256-2.5291-3.56256-1.4186 0-2.9409 1.00686-2.9409 3.79366v7.3801h-3.6634v-13.62315z"/><path d="m53.4117 14.4789h.0505l3.2783-9.13613h3.8441l-7.3801 18.65743h-3.8972l2.2182-5.3425-5.3663-13.31493h3.9477l3.3022 9.13613z"/><path d="m69.3828.541992h7.1489c3.3022 0 6.3998 1.237978 6.3998 5.005058 0 2.19436-1.1609 3.61299-3.1215 4.28512v.05047c1.161.41176 1.6763 1.11046 2.3219 3.32876.5685 1.9606 1.1105 3.7671 1.7029 5.7542h-4.0514c-.3347-1.315-.9298-3.6635-1.2379-4.8271-.5685-1.9871-1.0069-2.6061-3.6396-2.6061h-1.756v7.4332h-3.7671zm3.7671 7.975148h2.4786c2.0642 0 3.536-.56851 3.536-2.47862 0-2.06418-1.7295-2.47596-3.4324-2.47596h-2.5796v4.95458z"/><path d="m89.0204 13.2382c.2072 2.3219 2.1412 3.3022 4.4897 3.3022 1.0334 0 2.2714-.1541 3.2517-.4915l.4144 2.6832c-1.2141.3347-2.5025.542-4.1045.542-4.8775 0-7.6908-2.8904-7.6908-7.0959 0-4.20538 2.5795-7.1489 6.8381-7.1489 3.9743 0 6.1421 2.6327 6.1421 6.7345v1.4718h-9.3407zm0-2.5556h5.911c.0265-1.91014-1.0574-3.17468-2.7602-3.17468-1.7029 0-2.9409 1.29111-3.1481 3.17468z"/><path d="m109.612 8.517c-1.392-.56852-2.683-.7226-3.717-.7226-1.033 0-1.806.25769-1.806 1.11046 0 .74917.542 1.16094 2.529 1.77994 2.89.9032 4.543 2.0376 4.543 4.4392 0 3.0976-2.941 4.1549-5.651 4.1549-1.676 0-3.69-.3613-5.109-.9537l.723-2.7868c1.496.6456 3.278.9803 4.362.9803 1.395 0 2.194-.3108 2.194-1.2141 0-.7996-.722-1.214-2.863-1.8835-2.941-.9537-4.182-2.2183-4.182-4.15494 0-2.96743 2.683-4.23198 5.316-4.23198 1.419 0 3.122.25769 4.463.77307l-.8 2.70975z"/><path d="m116.939 13.2382c.207 2.3219 2.141 3.3022 4.49 3.3022 1.033 0 2.271-.1541 3.251-.4915l.415 2.6832c-1.214.3347-2.503.542-4.105.542-4.877 0-7.691-2.8904-7.691-7.0959 0-4.20538 2.58-7.1489 6.838-7.1489 3.975 0 6.143 2.6327 6.143 6.7345v1.4718h-9.341zm0-2.5556h5.911c.026-1.91014-1.057-3.17468-2.76-3.17468s-2.941 1.29111-3.148 3.17468z"/><path d="m136.988 10.0629c0-1.41866-.929-2.27143-3.02-2.27143-.98 0-2.298.20722-3.509.67212l-.67-2.6327c1.265-.46491 3.071-.79964 4.439-.79964 4.543 0 6.427 1.9101 6.427 5.21225v5.6267c0 1.0069.05 2.2714.207 3.0976h-3.252c-.13-.4383-.258-1.2379-.284-1.6763h-.051c-.696 1.2141-2.141 1.9872-3.947 1.9872-2.375 0-4.928-1.0839-4.928-4.232 0-4.0009 3.923-4.6438 8.594-4.6438v-.3347zm-.491 2.6061c-2.503 0-4.543.3879-4.543 2.2183 0 1.1875.773 1.857 2.014 1.857 2.141 0 3.02-1.5754 3.02-3.1216v-.9537z"/><path d="m152.237 7.89773c-.335-.07704-.696-.1036-1.057-.1036-1.807 0-3.302 1.16094-3.302 4.59327v6.5804h-3.664v-13.62573h3.587v1.77993h.05c.669-1.41863 1.857-2.09075 3.56-2.09075.335 0 .696.02657 1.007.05048l-.181 2.81335z"/><path d="m163.435 8.20661c-.696-.28426-1.496-.41444-2.195-.41444-2.606 0-3.947 1.96058-3.947 4.38603 0 2.4255 1.264 4.3356 4.024 4.3356.723 0 1.496-.077 2.219-.3878l.568 2.6831c-.98.3348-2.037.465-3.097.465-4.851 0-7.381-3.0445-7.381-7.0959 0-4.05129 2.737-7.1489 7.354-7.1489 1.161 0 2.168.13017 3.071.43834l-.619 2.73631z"/><path d="m170.273 0v7.17551h.05c.723-1.39472 2.298-2.14123 4.052-2.14123 3.071 0 5.031 1.96058 5.031 4.95458v8.97934h-3.663v-7.6138c0-2.22097-.516-3.56256-2.529-3.56256-1.419 0-2.941 1.00686-2.941 3.79366v7.3801h-3.664v-18.9656z"/></g></svg>