<svg width="138" height="36" viewBox="0 0 138 36" fill="none" xmlns="http://www.w3.org/2000/svg">
<path d="M17.1377 1.01306L16.1612 5.5683C14.2091 4.8454 12.1123 4.55566 10.1959 4.55566C7.95442 4.55566 5.78489 5.20706 5.78489 7.48468C5.78489 9.43723 7.37577 10.3767 11.0277 11.8953C15.6191 13.7759 18.7285 15.6557 18.7285 20.536C18.7285 26.1047 13.9197 28.7074 8.46033 28.7074C5.92996 28.7074 2.7482 28.2734 0 27.297L1.01264 22.6686C3.50726 23.682 6.25504 24.1518 8.27992 24.1518C11.3528 24.1518 13.0517 23.0664 13.0517 20.9334C13.0517 18.8724 11.3889 17.8606 7.59318 16.342C3.18177 14.5703 0.108911 12.3288 0.108911 8.0625C0.108911 2.27762 5.13431 0 9.8708 0C12.5463 0.000831401 15.1128 0.362489 17.1377 1.01306Z" fill="#D2007B"/>
<path d="M43.06 17.9362C43.06 24.6248 38.9021 28.7103 32.6113 28.7103C26.212 28.7103 22.127 24.6248 22.127 17.9362C22.127 11.2475 26.212 7.23438 32.6113 7.23438C38.9753 7.23396 43.06 11.2471 43.06 17.9362ZM37.5648 17.9362C37.5648 14.0677 35.9378 11.3922 32.6113 11.3922C29.2492 11.3922 27.6583 14.0677 27.6583 17.9362C27.6583 21.9485 29.2853 24.5529 32.6113 24.5529C35.9378 24.5529 37.5648 21.9485 37.5648 17.9362Z" fill="#D2007B"/>
<path d="M47.5801 7.70062H53.0033V10.4484H53.0752C54.124 8.35161 56.6548 7.23047 59.2941 7.23047C63.9217 7.23047 66.8864 10.1952 66.8864 14.7147V28.2358H61.3547V16.7758C61.3547 13.4128 60.5957 11.3887 57.5585 11.3887C55.4256 11.3887 53.1114 12.9069 53.1114 17.1009V28.2362H47.5801V7.70062Z" fill="#D2007B"/>
<path d="M75.5638 7.70312L80.553 21.4786H80.6249L85.5423 7.70312H91.3629L80.2275 35.8311H74.3703L77.6967 27.769L69.5977 7.70312H75.5638Z" fill="#D2007B"/>
<path d="M108.683 21.4749L106.26 28.2355H100.223L110.237 0.46875H118.01L127.953 28.2355H121.843L119.384 21.4749H108.683ZM114.033 4.87974L109.984 16.8831H118.047L114.033 4.87974Z" fill="#D2007B"/>
<path d="M138 0.46875H132.324V28.2355H138V0.46875Z" fill="#D2007B"/>
</svg>
